# xmcd
#
# Track frame offsets:
#	150
#	20157
#	38302
#	59227
#	88185
#	104105
#	121267
#	143847
#	168155
#	181217
#	196362
#	228597
#	236932
#
# Disc length: 3701 seconds
#
# Revision: 1
# Processed by: cddbd v1.5.2PL0 Copyright (c) Steve Scherf et al.
# Submitted via: audiograbber 1.83.01
#
DISCID=ba0e730d
DTITLE=Hudsons - The Hudsons Live Album
DYEAR=2006
DGENRE=Country
TTITLE0=Hibernation
TTITLE1=Dead and Gone
TTITLE2=Love is a Burden
TTITLE3=Rollin' Along
TTITLE4=Intro-Crazy Neighbors
TTITLE5=The Man Behind the Bushes
TTITLE6=Party in the Sun
TTITLE7=Caroline
TTITLE8=Rich Uncle
TTITLE9=MC Devil's Son
TTITLE10=Where Do Songs Go When They Die
TTITLE11=I Wish I Was a Hudson
TTITLE12=Don't Drink
EXTD=www.the-huds.com
EXTT0=
EXTT1=
EXTT2=
EXTT3=
EXTT4=
EXTT5=
EXTT6=
EXTT7=
EXTT8=
EXTT9=
EXTT10=
EXTT11=
EXTT12=
PLAYORDER=
